<svg width="281" height="281" viewBox="0 0 281 281" fill="none" xmlns="http://www.w3.org/2000/svg">
<path d="M273.356 237.427C273.356 237.506 213.621 237.574 139.943 237.574C66.265 237.574 6.51318 237.506 6.51318 237.427C6.51318 237.349 66.2425 237.281 139.943 237.281C213.644 237.281 273.356 237.343 273.356 237.427Z" fill="#263238"/>
<path d="M206.737 220.865C206.737 220.865 218.989 216.532 230.341 220.865L228.172 224.799L207.878 225.58L206.754 220.905" fill="#407BFF"/>
<path d="M208.777 198.881H208.996C209.171 198.868 209.347 198.889 209.514 198.944C209.68 199 209.834 199.087 209.967 199.202C210.1 199.317 210.208 199.457 210.287 199.614C210.365 199.771 210.412 199.942 210.424 200.117L213.329 240.424L210.446 240.632L207.541 200.325C207.526 200.149 207.547 199.971 207.601 199.803C207.655 199.635 207.743 199.479 207.858 199.345C207.973 199.211 208.113 199.1 208.271 199.021C208.429 198.941 208.601 198.893 208.777 198.881Z" fill="#E0E0E0"/>
<path d="M208.777 198.88C208.497 198.918 208.233 199.038 208.019 199.223C207.764 199.451 207.609 199.77 207.586 200.111C207.586 200.51 207.653 200.987 207.687 201.521C207.85 203.668 208.092 206.753 208.384 210.564C208.946 218.235 209.727 228.823 210.593 240.603L210.435 240.468L211.981 240.355L213.318 240.26L213.183 240.417C212.346 228.582 211.593 217.937 211.053 210.227C210.795 206.388 210.587 203.286 210.441 201.122C210.441 200.856 210.424 200.603 210.39 200.364C210.393 200.146 210.361 199.93 210.295 199.723C210.172 199.402 209.928 199.141 209.615 198.998C209.421 198.91 209.209 198.867 208.997 198.874H208.777L208.997 198.841C209.212 198.827 209.427 198.864 209.626 198.947C209.96 199.09 210.225 199.359 210.362 199.695C210.437 199.91 210.477 200.136 210.48 200.364C210.48 200.6 210.52 200.852 210.542 201.122C210.711 203.28 210.947 206.383 211.245 210.215C211.807 217.926 212.593 228.57 213.493 240.4V240.547H213.346L212.009 240.642L210.463 240.754H210.317V240.608C209.486 228.806 208.738 218.23 208.199 210.564C207.94 206.748 207.738 203.662 207.592 201.51C207.563 200.976 207.513 200.51 207.518 200.088C207.551 199.727 207.725 199.394 208.002 199.161C208.164 199.024 208.357 198.928 208.564 198.88C208.635 198.869 208.707 198.869 208.777 198.88Z" fill="#263238"/>
<path d="M208.98 227.952L213.083 227.654L214.055 241.097C214.094 241.642 213.915 242.18 213.558 242.593C213.2 243.006 212.694 243.26 212.15 243.3C211.605 243.338 211.069 243.158 210.656 242.801C210.243 242.445 209.988 241.939 209.947 241.395L208.98 227.952Z" fill="#455A64"/>
<path d="M208.99 239.259L209.786 239.201L208.526 221.752L207.73 221.809L208.99 239.259Z" fill="#455A64"/>
<path d="M213.082 227.655C213.082 227.745 211.396 227.987 208.946 228.251L209.131 228.037C209.204 228.976 209.283 229.993 209.367 231.066C209.514 233.056 209.615 234.854 209.671 236.158C209.748 236.862 209.748 237.573 209.671 238.277C209.494 237.591 209.391 236.888 209.362 236.18C209.227 234.882 209.075 233.084 208.929 231.122C208.862 230.049 208.794 229.026 208.732 228.088V227.891H208.929C211.374 227.655 213.077 227.571 213.082 227.655Z" fill="#263238"/>
<path d="M216.28 199.938H213.391V232.528H216.28V199.938Z" fill="#E0E0E0"/>
<path d="M216.28 232.527C216.28 232.527 216.28 232.465 216.28 232.353C216.28 232.241 216.28 232.066 216.28 231.859C216.28 231.409 216.28 230.78 216.28 229.97C216.28 228.318 216.28 225.958 216.235 223.03C216.235 217.162 216.202 209.041 216.174 199.937L216.32 200.083H213.437C213.723 199.791 213.515 200.01 213.577 199.948V205.315C213.577 207.069 213.577 208.775 213.577 210.435C213.577 213.757 213.577 216.864 213.577 219.686C213.549 225.306 213.526 229.802 213.515 232.527L213.453 232.471L215.583 232.505H216.145H216.342C216.283 232.514 216.222 232.514 216.162 232.505H215.6L213.437 232.539H213.38V232.477C213.38 229.74 213.347 225.255 213.319 219.635C213.319 216.825 213.319 213.706 213.319 210.385C213.319 208.725 213.319 207.018 213.319 205.265C213.319 204.388 213.319 203.5 213.319 202.601V199.898C213.386 199.83 213.172 200.032 213.47 199.74H216.499V199.886C216.499 209.036 216.455 217.19 216.438 223.086C216.438 225.997 216.404 228.346 216.393 229.993C216.393 230.787 216.393 231.405 216.393 231.847V232.325C216.292 232.482 216.286 232.533 216.28 232.527Z" fill="#263238"/>
<path d="M216.836 212.672H212.723V199.184C212.723 198.638 212.939 198.115 213.325 197.729C213.711 197.344 214.234 197.127 214.78 197.127C215.05 197.127 215.317 197.18 215.567 197.284C215.816 197.387 216.043 197.538 216.234 197.729C216.425 197.92 216.577 198.147 216.68 198.397C216.783 198.646 216.836 198.914 216.836 199.184V212.672Z" fill="#455A64"/>
<path d="M217.634 201.393H216.836V218.888H217.634V201.393Z" fill="#455A64"/>
<path d="M212.723 212.673C212.723 212.583 214.409 212.465 216.887 212.375L216.69 212.577C216.69 211.639 216.69 210.616 216.69 209.537C216.69 207.547 216.69 205.743 216.752 204.439C216.729 203.731 216.781 203.023 216.91 202.326C217.038 203.023 217.09 203.731 217.067 204.439C217.106 205.743 217.134 207.547 217.134 209.537C217.134 210.616 217.134 211.639 217.134 212.577V212.779H216.938C214.431 212.802 212.723 212.763 212.723 212.673Z" fill="#263238"/>
<path d="M222.103 207.586H219.214V240.176H222.103V207.586Z" fill="#E0E0E0"/>
<path d="M222.102 240.176C222.098 240.118 222.098 240.06 222.102 240.002C222.102 239.878 222.102 239.715 222.102 239.507C222.102 239.057 222.102 238.422 222.102 237.619C222.102 235.966 222.074 233.606 222.057 230.678C222.057 224.811 222.018 216.69 221.996 207.585L222.142 207.732H219.253C219.545 207.439 219.332 207.658 219.399 207.597V212.964C219.399 214.717 219.399 216.424 219.399 218.084C219.399 221.399 219.399 224.513 219.399 227.334C219.399 232.954 219.349 237.45 219.332 240.176L219.275 240.12L221.4 240.153H221.962H222.164C222.105 240.162 222.044 240.162 221.984 240.153H221.422L219.264 240.187H219.18V240.125C219.18 237.388 219.141 232.903 219.112 227.283C219.112 224.473 219.112 221.349 219.112 218.033C219.112 216.375 219.112 214.661 219.112 212.913V207.546C219.18 207.479 218.966 207.681 219.259 207.389H222.293V207.535C222.293 216.684 222.248 224.839 222.232 230.734C222.232 233.645 222.198 235.994 222.187 237.641C222.187 238.434 222.187 239.052 222.187 239.496V239.973C222.108 240.131 222.102 240.181 222.102 240.176Z" fill="#263238"/>
<path d="M222.659 220.305H218.539V206.817C218.539 206.546 218.592 206.278 218.696 206.028C218.8 205.778 218.952 205.551 219.144 205.36C219.335 205.169 219.563 205.018 219.813 204.915C220.063 204.812 220.331 204.759 220.602 204.76C221.147 204.76 221.67 204.976 222.056 205.362C222.442 205.748 222.659 206.271 222.659 206.817V220.305Z" fill="#455A64"/>
<path d="M223.457 209.041H222.659V226.536H223.457V209.041Z" fill="#455A64"/>
<path d="M218.539 220.303C218.539 220.214 220.225 220.096 222.709 220.006L222.512 220.208C222.512 219.264 222.512 218.247 222.512 217.168C222.512 215.178 222.541 213.374 222.58 212.07C222.556 211.362 222.609 210.654 222.737 209.957C222.865 210.654 222.918 211.362 222.895 212.07C222.934 213.374 222.956 215.178 222.956 217.168C222.956 218.247 222.956 219.264 222.956 220.208V220.41H222.765C220.248 220.45 218.545 220.41 218.539 220.303Z" fill="#263238"/>
<path d="M227.587 198.744H224.699V231.335H227.587V198.744Z" fill="#E0E0E0"/>
<path d="M227.61 231.336C227.61 231.336 227.61 231.274 227.61 231.162C227.61 231.049 227.61 230.87 227.61 230.667C227.61 230.218 227.61 229.583 227.61 228.779C227.61 227.127 227.582 224.761 227.565 221.838C227.565 215.971 227.531 207.85 227.503 198.746L227.65 198.892H224.766L224.907 198.751V204.118C224.907 205.872 224.907 207.586 224.907 209.244C224.907 212.56 224.907 215.668 224.907 218.494C224.879 224.114 224.856 228.61 224.845 231.336L224.783 231.28L226.913 231.314H227.475H227.672C227.612 231.319 227.552 231.319 227.492 231.314H226.93L224.766 231.347H224.71V231.291C224.71 228.549 224.677 224.069 224.648 218.449C224.648 215.639 224.648 212.515 224.648 209.199V204.118C224.648 203.242 224.648 202.354 224.648 201.46V198.751L224.8 198.6H227.829V198.746C227.829 207.889 227.784 216.05 227.768 221.945C227.768 224.856 227.734 227.205 227.723 228.846C227.723 229.639 227.723 230.263 227.723 230.707V231.179C227.692 231.236 227.654 231.289 227.61 231.336Z" fill="#263238"/>
<path d="M228.172 211.474H224.058V197.986C224.057 197.716 224.11 197.448 224.213 197.198C224.316 196.947 224.468 196.72 224.659 196.528C224.85 196.337 225.077 196.185 225.327 196.081C225.577 195.977 225.844 195.924 226.115 195.924C226.386 195.924 226.654 195.977 226.903 196.081C227.153 196.185 227.38 196.337 227.571 196.528C227.763 196.72 227.914 196.947 228.017 197.198C228.12 197.448 228.173 197.716 228.172 197.986V211.474Z" fill="#455A64"/>
<path d="M228.942 200.201H228.144V217.696H228.942V200.201Z" fill="#455A64"/>
<path d="M224.03 211.475C224.03 211.385 225.716 211.273 228.194 211.183L227.998 211.385C227.998 210.441 227.998 209.418 227.998 208.345C227.998 206.35 228.026 204.551 228.065 203.242C228.042 202.534 228.095 201.826 228.222 201.129C228.35 201.826 228.403 202.534 228.38 203.242C228.419 204.551 228.447 206.35 228.447 208.345C228.447 209.418 228.447 210.441 228.447 211.385V211.582H228.25C225.733 211.605 224.03 211.565 224.03 211.475Z" fill="#263238"/>
<path d="M227.689 247.931C221.569 250.82 215.392 250.775 209.176 247.931L206.737 220.865C214.189 223.046 222.097 222.838 230.341 220.865L227.689 247.931Z" fill="#407BFF"/>
<path d="M230.347 220.703C230.063 220.837 229.768 220.944 229.464 221.023C228.902 221.215 228.048 221.451 227.003 221.698C225.958 221.945 224.687 222.181 223.271 222.372C221.735 222.564 220.189 222.669 218.64 222.687C217.094 222.695 215.548 222.618 214.009 222.457C212.752 222.32 211.503 222.117 210.267 221.85C209.216 221.625 208.367 221.406 207.794 221.226C207.491 221.146 207.194 221.045 206.906 220.922C207.216 220.96 207.523 221.024 207.822 221.113C208.384 221.26 209.255 221.445 210.306 221.647C211.357 221.85 212.627 222.041 214.038 222.209C217.098 222.515 220.183 222.486 223.237 222.125C224.648 221.951 225.907 221.743 226.958 221.518C228.009 221.293 228.852 221.097 229.431 220.956C229.729 220.847 230.035 220.762 230.347 220.703Z" fill="#263238"/>
<path d="M129.473 246.719L82.4565 247.972L129.473 267.08L180.037 264.09L129.473 246.719Z" fill="#E0E0E0"/>
<path d="M116.07 244.824L69.0586 246.072L116.07 265.18L166.639 262.19L116.07 244.824Z" fill="#F5F5F5"/>
<path d="M72.127 239.85L119.138 258.958V262.431L72.127 242.654V239.85Z" fill="#E0E0E0"/>
<path d="M119.138 262.43L169.701 259.199V255.973L119.138 258.957V262.43Z" fill="#EBEBEB"/>
<path d="M119.138 238.602L72.127 239.849L119.138 258.957L169.701 255.967L119.138 238.602Z" fill="white"/>
<path d="M119.144 238.603C119.144 238.603 119.223 238.603 119.38 238.67L120.082 238.9L122.802 239.816L133.11 243.346L169.724 255.85C169.756 255.862 169.782 255.885 169.796 255.916C169.811 255.946 169.813 255.981 169.803 256.013C169.795 256.038 169.78 256.059 169.76 256.074C169.74 256.089 169.715 256.097 169.69 256.098L122.297 258.908L119.144 259.082C119.124 259.087 119.102 259.087 119.082 259.082L72.082 239.974C72.0512 239.961 72.0264 239.937 72.0128 239.907C71.9992 239.877 71.9978 239.842 72.0089 239.811C72.0198 239.79 72.0357 239.771 72.0553 239.758C72.0749 239.744 72.0976 239.735 72.1213 239.732L106.257 238.85L115.777 238.631L118.284 238.58H119.144L118.284 238.619L115.772 238.704L106.218 238.99L72.1269 239.974L72.1719 239.738L119.194 258.846H119.127L122.302 258.66L169.724 255.845L169.69 256.092L133.081 243.469L122.786 239.895L120.071 238.945L119.374 238.692L119.144 238.603Z" fill="#263238"/>
<path d="M119.105 262.56C118.91 261.384 118.91 260.184 119.105 259.008C119.299 260.184 119.299 261.384 119.105 262.56Z" fill="#263238"/>
<path d="M151.42 252.338C151.42 252.422 143.754 252.945 134.296 253.512C124.837 254.08 117.155 254.473 117.149 254.395C117.143 254.316 124.809 253.788 134.279 253.22C143.748 252.652 151.414 252.281 151.42 252.338Z" fill="#263238"/>
<path d="M146.435 250.438C146.435 250.522 138.769 251.045 129.305 251.612C119.841 252.18 112.17 252.573 112.164 252.489C112.158 252.405 119.824 251.888 129.288 251.32C138.752 250.752 146.429 250.359 146.435 250.438Z" fill="#263238"/>
<path d="M141.45 248.517C141.45 248.596 133.784 249.124 124.32 249.686C114.856 250.248 107.179 250.647 107.173 250.569C107.168 250.49 114.839 249.962 124.303 249.394C133.767 248.826 141.444 248.433 141.45 248.517Z" fill="#263238"/>
<path d="M135.65 246.593C135.65 246.672 127.984 247.195 118.52 247.762C109.056 248.33 101.379 248.723 101.374 248.645C101.368 248.566 109.039 248.038 118.503 247.47C127.967 246.903 135.644 246.509 135.65 246.593Z" fill="#263238"/>
<path d="M130.676 244.666C130.676 244.751 123.01 245.273 113.546 245.841C104.082 246.408 96.4053 246.802 96.4053 246.718C96.4053 246.633 104.065 246.116 113.529 245.549C122.993 244.981 130.67 244.588 130.676 244.666Z" fill="#263238"/>
<path d="M124.595 242.711C124.595 242.789 116.935 243.318 107.471 243.88C98.0072 244.442 90.3303 244.841 90.3247 244.762C90.3191 244.683 97.9848 244.155 107.454 243.587C116.924 243.02 124.59 242.626 124.595 242.711Z" fill="#263238"/>
<path d="M118.52 242.036L116.171 240.805L117.323 239.766L118.52 242.036Z" fill="#263238"/>
<path d="M112.979 239.333L115.732 236.883L117.345 239.861L116.171 240.806L112.979 239.333Z" fill="white"/>
<path d="M66.6696 156.033L82.3662 150.801L91.111 143.416L92.9993 146.406L100.333 144.725L121.088 150.121L124.438 156.039L142.152 160.889L142.236 185.735L139.016 231.195L139.488 238.422H54.7215L53.3221 208.226L53.2603 189.438L66.6696 156.033Z" fill="#407BFF"/>
<path d="M111.501 225.462L129.822 224.574C129.822 224.574 133.374 226.597 134.318 232.403C135.262 238.208 134.318 238.203 134.318 238.203L125.101 241.316L105.549 240.867L98.4565 231.959L103.801 228.806L111.501 225.462Z" fill="#FFBDA7"/>
<path d="M48.2025 218.763C48.2025 218.763 65.7538 191.09 62.8145 195.091C62.4549 195.586 64.6017 193.506 67.3668 186.723C70.0194 180.204 76.9207 152.846 76.9207 152.846L61.1061 157.044C56.9473 158.168 53.5584 158.505 49.9785 160.888C46.8537 162.962 43.5998 167.031 41.481 170.122C33.613 181.637 19.1359 204.061 17.315 206.927C14.7073 211.018 9.44703 221.578 9.49199 227.884C9.54257 233.375 10.616 238.27 18.9954 242.642C26.7285 246.677 76.1621 243.867 76.1621 243.867L75.8698 223.315L48.2025 218.763Z" fill="#407BFF"/>
<path d="M191.141 213.492C190.416 211.682 162.777 181.121 148.896 166.975C146.809 164.775 144.554 162.74 142.152 160.889L137.577 190.675C137.577 190.675 139.151 197.542 140.106 202.623C140.314 203.719 154.668 213.486 154.668 213.486L157.742 215.453L129.681 222.872L130.856 240.698L181.093 239.411C187.618 236.888 198.003 230.594 191.141 213.492Z" fill="#407BFF"/>
<path d="M181.093 239.411H180.84L180.092 239.439L177.215 239.541L166.565 239.867L130.861 240.85H130.732V240.715C130.62 239.029 130.507 237.276 130.389 235.483C130.103 231.133 129.827 226.896 129.563 222.889V222.771L129.675 222.742C132.682 222.124 135.56 221.349 138.313 220.601L146.181 218.421C151.166 217.038 155.606 215.864 159.349 215.049C162.267 214.378 165.226 213.898 168.206 213.61C169.251 213.498 170.066 213.498 170.611 213.486H171.449H171.235L170.617 213.52C170.055 213.52 169.257 213.559 168.217 213.689C165.246 214.01 162.297 214.517 159.388 215.206C155.657 216.038 151.222 217.224 146.243 218.623L138.375 220.826C135.621 221.579 132.755 222.36 129.726 222.99L129.833 222.844C130.103 226.856 130.395 231.088 130.665 235.438C130.783 237.231 130.901 239.007 131.007 240.67L130.867 240.541L166.571 239.647L177.249 239.411L180.126 239.361H181.126L181.093 239.411Z" fill="#263238"/>
<path d="M115.131 232.869C115.021 232.631 114.853 232.425 114.642 232.268L111.669 229.615L109.944 234.752C110.307 235.029 110.721 235.231 111.163 235.348C111.605 235.464 112.065 235.493 112.518 235.431C112.97 235.37 113.406 235.219 113.801 234.989C114.195 234.759 114.54 234.453 114.816 234.089C114.967 233.928 115.075 233.732 115.13 233.519C115.185 233.306 115.185 233.083 115.131 232.869Z" fill="#EE977A"/>
<path d="M75.1953 204.226L112.962 239.334L116.53 241.02L118.503 242.031L117.581 240.345L115.715 236.895L77.4826 201.758C77.1709 201.469 76.7614 201.309 76.3362 201.309C75.911 201.309 75.5014 201.469 75.1897 201.758C75.0207 201.917 74.8861 202.108 74.7942 202.32C74.7024 202.533 74.6552 202.762 74.6558 202.993C74.6563 203.225 74.7045 203.454 74.7973 203.666C74.8901 203.878 75.0256 204.068 75.1953 204.226Z" fill="#455A64"/>
<path d="M75.8979 223.962L78.8597 224.491C78.8597 224.491 94.2079 218.826 96.3997 218.539C98.0857 218.32 106.167 220.225 109.747 221.09C110.453 221.251 111.081 221.652 111.525 222.223C111.968 222.795 112.2 223.503 112.181 224.226C112.183 224.249 112.183 224.271 112.181 224.294C112.135 224.88 111.926 225.441 111.577 225.914C111.228 226.386 110.754 226.752 110.208 226.969C110.208 226.969 113.22 227.907 111.855 231.094C110.849 233.449 107.668 233.089 107.668 233.089L102.357 233.19C102.357 233.19 103.711 233.595 105.729 234.073C107.921 234.584 108.505 234.983 108.505 234.983C108.505 234.983 111.709 238.063 108.612 239.35C107.598 239.808 106.484 240.002 105.375 239.912C105.375 239.912 106.302 243.222 103.824 243.795C101.345 244.368 84.9686 243.121 84.9686 243.121C84.9686 243.121 84.1032 242.637 80.7649 242.351L76.1452 242.031L75.8979 223.962Z" fill="#FFBDA7"/>
<path d="M75.898 223.962C75.898 223.962 75.898 224.075 75.898 224.288C75.898 224.502 75.898 224.85 75.898 225.227C75.898 226.058 75.943 227.261 75.9711 228.818C76.0329 231.931 76.1172 236.439 76.224 242.031L76.1284 241.935L80.3715 242.222C81.1134 242.272 81.8777 242.351 82.6533 242.463C83.4564 242.553 84.2454 242.742 85.0024 243.025H84.9575C88.3744 243.273 92.0948 243.514 96.0457 243.688C98.0183 243.773 100.047 243.851 102.127 243.818C102.642 243.81 103.156 243.769 103.666 243.694C104.16 243.619 104.607 243.357 104.914 242.963C105.206 242.542 105.367 242.043 105.375 241.53C105.401 241.005 105.348 240.478 105.218 239.968L105.173 239.771H105.375C106.063 239.827 106.755 239.762 107.421 239.58C108.109 239.439 108.758 239.148 109.32 238.726C109.566 238.487 109.728 238.175 109.782 237.837C109.835 237.499 109.778 237.152 109.618 236.849C109.324 236.184 108.906 235.582 108.387 235.073C107.571 234.698 106.715 234.415 105.836 234.23L102.256 233.297L101.272 233.044H102.29L107.6 232.943C108.323 233.004 109.051 232.922 109.742 232.701C110.427 232.498 111.022 232.065 111.428 231.476C111.523 231.336 111.591 231.173 111.675 231.021L111.855 230.521C111.905 230.352 111.933 230.184 111.973 230.015C112.012 229.846 112.007 229.667 112.012 229.498C112.005 229.159 111.926 228.825 111.782 228.518C111.638 228.212 111.431 227.938 111.175 227.716C110.917 227.488 110.628 227.299 110.315 227.154L110.202 227.104H110.141H110.113C110.113 227.329 110.084 226.8 110.113 226.851L110.343 226.744C110.492 226.667 110.635 226.579 110.77 226.48C111.312 226.088 111.708 225.527 111.894 224.884C112.069 224.251 112.024 223.577 111.765 222.973C111.505 222.383 111.064 221.89 110.506 221.568C109.928 221.293 109.313 221.103 108.679 221.006L106.808 220.556C105.572 220.27 104.358 219.994 103.177 219.742C101.997 219.489 100.834 219.247 99.6987 219.045C99.1367 218.944 98.5747 218.854 98.0127 218.781C97.476 218.693 96.9321 218.657 96.3885 218.674C95.3665 218.889 94.3587 219.167 93.3706 219.506C92.404 219.809 91.471 220.124 90.5606 220.422L85.6543 222.108L78.7979 224.552L76.578 224.131L76.016 224.024L75.8306 223.985H76.0048L76.5668 224.075L78.8148 224.451C80.3772 223.861 82.6982 223.001 85.6487 221.939C87.1268 221.377 88.7622 220.815 90.5493 220.214C91.4373 219.91 92.3702 219.59 93.3593 219.281C94.3594 218.933 95.3806 218.65 96.4166 218.432C96.9804 218.407 97.5453 218.439 98.1026 218.528C98.6646 218.601 99.2266 218.691 99.7886 218.792C100.913 218.989 102.087 219.219 103.273 219.477C104.459 219.736 105.673 220 106.909 220.287L108.786 220.725L109.736 220.956C110.068 221.037 110.388 221.163 110.686 221.332C111.291 221.687 111.77 222.221 112.057 222.861C112.339 223.518 112.389 224.251 112.198 224.94C111.999 225.64 111.571 226.253 110.984 226.682C110.836 226.79 110.68 226.885 110.517 226.969C110.439 227.014 110.354 227.048 110.27 227.087C110.27 227.143 110.27 226.615 110.27 226.84H110.304H110.371L110.495 226.89C110.83 227.03 111.143 227.22 111.422 227.452C111.704 227.7 111.935 227.999 112.102 228.335C112.261 228.679 112.347 229.052 112.355 229.43C112.355 229.616 112.355 229.807 112.316 229.992C112.276 230.178 112.243 230.358 112.186 230.554L112.001 231.083C111.911 231.251 111.832 231.426 111.731 231.583C111.298 232.221 110.659 232.691 109.921 232.915C109.197 233.151 108.433 233.239 107.673 233.173L102.363 233.28L102.402 233.005L105.971 233.932C106.883 234.12 107.77 234.416 108.612 234.814C109.162 235.35 109.603 235.988 109.91 236.692C110.064 237.045 110.126 237.432 110.09 237.816C110.037 238.218 109.837 238.586 109.528 238.85C108.93 239.303 108.239 239.618 107.505 239.771C106.803 239.963 106.072 240.03 105.347 239.968L105.504 239.794C105.639 240.333 105.694 240.89 105.667 241.446C105.655 242.01 105.475 242.558 105.15 243.02C104.801 243.468 104.295 243.767 103.734 243.857C103.209 243.937 102.68 243.978 102.149 243.981C100.058 244.02 98.0239 243.93 96.0457 243.846C92.1117 243.66 88.38 243.407 84.9518 243.155H84.9181C84.1931 242.881 83.4387 242.692 82.6701 242.593C81.9002 242.48 81.1471 242.396 80.4221 242.345L76.1846 242.042H76.0947V241.952C76.0329 236.332 75.9879 231.802 75.9542 228.666C75.9542 227.126 75.9542 225.924 75.9542 225.103C75.9542 224.704 75.9542 224.401 75.9542 224.181C75.9542 223.962 75.898 223.962 75.898 223.962Z" fill="#6F4439"/>
<path d="M109.944 226.968C108.537 226.98 107.13 226.897 105.734 226.721C104.329 226.639 102.93 226.465 101.547 226.198C102.954 226.187 104.361 226.269 105.757 226.446C107.162 226.531 108.561 226.705 109.944 226.968Z" fill="#6F4439"/>
<path d="M93.3761 242.035C93.3761 242.063 93.1344 241.979 92.8759 241.709C92.5333 241.344 92.3338 240.867 92.3139 240.366C92.2954 239.868 92.4593 239.381 92.7748 238.995C93.0164 238.703 93.2356 238.601 93.2525 238.63C93.2693 238.658 93.1176 238.815 92.9377 239.107C92.7047 239.483 92.5856 239.918 92.5949 240.36C92.6165 240.801 92.767 241.225 93.0277 241.58C93.2244 241.861 93.3986 241.996 93.3761 242.035Z" fill="#6F4439"/>
<path d="M93.1287 236.478C93.1287 236.512 92.8421 236.478 92.4768 236.242C92.2413 236.077 92.0441 235.864 91.8985 235.616C91.7529 235.369 91.6623 235.092 91.633 234.807C91.6037 234.521 91.6363 234.232 91.7285 233.96C91.8208 233.688 91.9706 233.439 92.1677 233.23C92.4712 232.909 92.7297 232.831 92.7297 232.859C92.7297 232.887 92.5274 233.033 92.2913 233.353C91.9828 233.766 91.8368 234.278 91.8811 234.792C91.9473 235.302 92.2019 235.769 92.5948 236.102C92.8983 236.349 93.1456 236.433 93.1287 236.478Z" fill="#6F4439"/>
<path d="M93.0331 230.009C93.0331 230.038 92.7521 229.88 92.4711 229.476C92.1245 228.938 91.9902 228.291 92.0946 227.66C92.2072 227.028 92.5545 226.462 93.0668 226.075C93.4546 225.783 93.7525 225.733 93.7637 225.761C93.7749 225.789 93.5164 225.924 93.2017 226.227C92.7678 226.612 92.4763 227.132 92.3744 227.703C92.2724 228.274 92.3659 228.863 92.6397 229.374C92.8589 229.773 93.0668 229.976 93.0331 230.009Z" fill="#6F4439"/>
<path d="M94.9779 221.709C94.9779 221.709 94.8318 221.641 94.7307 221.428C94.6106 221.142 94.5908 220.823 94.6745 220.524C94.7581 220.225 94.9403 219.964 95.1915 219.781C95.3938 219.652 95.5456 219.641 95.5568 219.669C95.568 219.697 95.1016 219.995 94.9442 220.602C94.8771 220.969 94.8886 221.346 94.9779 221.709Z" fill="#6F4439"/>
<path d="M102.767 233.09C102.011 233.21 101.243 233.242 100.48 233.185C99.7128 233.218 98.9447 233.158 98.1924 233.005C98.9478 232.878 99.716 232.844 100.48 232.904C101.247 232.871 102.015 232.933 102.767 233.09Z" fill="#6F4439"/>
<path d="M105.251 239.918C103.855 239.767 102.471 239.521 101.109 239.182C99.7269 238.932 98.3622 238.595 97.0234 238.17C98.4173 238.321 99.7993 238.567 101.16 238.906C102.544 239.154 103.911 239.492 105.251 239.918Z" fill="#6F4439"/>
<path d="M64.422 190.068C64.4384 189.949 64.4686 189.832 64.5119 189.719C64.5738 189.489 64.7086 189.158 64.8154 188.73C65.1624 187.513 65.4161 186.271 65.5741 185.016C65.8214 183.153 65.9022 181.272 65.8158 179.396C65.7248 177.107 65.3356 174.84 64.6581 172.652C63.9399 170.472 62.8274 168.443 61.376 166.666C60.1885 165.217 58.7701 163.973 57.1778 162.985C56.1014 162.322 54.9579 161.773 53.7665 161.35C53.3506 161.181 53.0078 161.102 52.7886 161.024C52.6708 160.991 52.5561 160.947 52.4458 160.895C52.5662 160.906 52.6849 160.93 52.7999 160.968C53.0303 161.029 53.3619 161.097 53.8002 161.249C55.0163 161.633 56.1836 162.158 57.279 162.811C58.9073 163.79 60.3589 165.036 61.5727 166.498C63.0648 168.291 64.2085 170.348 64.9447 172.562C65.6246 174.779 66.0026 177.077 66.0687 179.396C66.1455 181.285 66.0439 183.178 65.7652 185.049C65.5867 186.311 65.3028 187.555 64.9166 188.77C64.7873 189.202 64.6412 189.517 64.5625 189.742C64.5236 189.854 64.4767 189.963 64.422 190.068Z" fill="#263238"/>
<path d="M142.186 184.898C142.193 185.018 142.193 185.138 142.186 185.258C142.186 185.522 142.186 185.865 142.146 186.292C142.09 187.22 142.023 188.501 141.933 190.074C141.725 193.3 141.444 197.695 141.129 202.556C140.814 207.418 140.472 211.807 140.241 215.033L139.943 218.81C139.904 219.231 139.87 219.574 139.848 219.838C139.838 219.957 139.821 220.075 139.797 220.192C139.784 220.073 139.784 219.952 139.797 219.832C139.797 219.568 139.797 219.225 139.842 218.804C139.893 217.877 139.966 216.59 140.05 215.016C140.258 211.796 140.539 207.395 140.854 202.54C141.169 197.684 141.511 193.283 141.742 190.063L142.04 186.287C142.079 185.859 142.113 185.522 142.135 185.258C142.139 185.137 142.156 185.016 142.186 184.898Z" fill="#263238"/>
<path d="M109.382 179.305C109.314 179.263 109.251 179.212 109.196 179.153L108.685 178.681L106.774 176.866L103.835 174.011C102.711 172.887 101.429 171.651 100.109 170.206L100.317 170.156C99.6928 172.853 98.9903 175.899 98.2429 179.148L98.1642 179.49L97.99 179.187C97.2032 177.838 96.3995 176.428 95.5902 174.983C91.9428 168.458 88.8013 162.468 86.4465 158.174L83.6365 153.116L82.889 151.739L82.6923 151.379C82.653 151.295 82.6305 151.256 82.6361 151.25C82.6681 151.284 82.6964 151.322 82.7204 151.362L82.934 151.711L83.7432 153.065C84.4401 154.245 85.4293 155.965 86.6207 158.123C89.0204 162.394 92.1901 168.369 95.8319 174.893C96.6412 176.338 97.4448 177.743 98.226 179.091L97.9731 179.131C98.7374 175.882 99.4512 172.842 100.081 170.139L100.137 169.914L100.289 170.088C101.587 171.527 102.862 172.786 103.97 173.915L106.87 176.81L108.735 178.67L109.219 179.165C109.277 179.207 109.331 179.254 109.382 179.305Z" fill="#263238"/>
<path d="M110.444 178.604C110.444 178.604 110.59 178.39 110.871 178.008L112.085 176.356C113.119 174.923 114.563 172.877 116.238 170.432L116.334 170.286L116.44 170.41C117.186 171.255 118.03 172.01 118.953 172.658C119.914 173.343 120.976 173.978 122.021 174.709L121.807 174.793L121.852 174.597C122.976 169.943 123.977 165.734 124.432 162.637C124.668 161.092 124.814 159.827 124.898 158.962C124.938 158.546 124.972 158.214 124.994 157.956C125 157.838 125.019 157.721 125.05 157.607C125.061 157.725 125.061 157.844 125.05 157.961C125.05 158.192 125.05 158.523 125.005 158.967C124.955 159.844 124.842 161.109 124.629 162.665C124.224 165.785 123.246 170.016 122.122 174.659C122.111 174.725 122.096 174.79 122.077 174.855L122.032 175.058L121.864 174.94C120.824 174.215 119.762 173.574 118.79 172.877C117.856 172.217 117.003 171.449 116.249 170.59H116.446C114.76 173.023 113.276 175.046 112.209 176.457C111.675 177.159 111.242 177.705 110.938 178.07C110.787 178.255 110.663 178.39 110.579 178.486C110.494 178.581 110.449 178.609 110.444 178.604Z" fill="#263238"/>
<path d="M108.797 219.949C108.783 219.81 108.783 219.671 108.797 219.533C108.797 219.235 108.797 218.841 108.797 218.347C108.797 217.29 108.854 215.812 108.887 213.997C108.96 210.293 109.05 205.224 109.157 199.627C109.264 194.029 109.264 188.949 109.303 185.256C109.303 183.441 109.331 181.963 109.337 180.901C109.337 180.412 109.337 180.018 109.337 179.721C109.321 179.582 109.321 179.443 109.337 179.305C109.355 179.443 109.364 179.582 109.365 179.721C109.365 180.013 109.365 180.412 109.399 180.901C109.399 181.963 109.399 183.441 109.449 185.256C109.449 188.937 109.449 194.018 109.388 199.632C109.326 205.247 109.168 210.31 109.033 214.003C108.96 215.818 108.899 217.296 108.859 218.352L108.792 219.538C108.803 219.675 108.805 219.812 108.797 219.949Z" fill="#263238"/>
<path d="M76.1617 243.869C76.1441 243.735 76.1347 243.6 76.1336 243.465C76.1336 243.178 76.1336 242.79 76.0943 242.301C76.0662 241.262 76.0325 239.795 75.9931 237.974C75.9313 234.276 75.847 229.145 75.7515 223.317L75.8695 223.452L71.677 222.755L54.3842 219.821L49.1464 218.9L47.7245 218.619L47.3536 218.54L47.23 218.506C47.2726 218.498 47.3166 218.498 47.3592 218.506L47.7358 218.557L49.1633 218.771L54.4123 219.602L71.7163 222.457L75.9088 223.16H76.0269V223.278C76.0887 229.106 76.1393 234.231 76.173 237.935C76.173 239.756 76.173 241.222 76.173 242.262C76.173 242.751 76.173 243.139 76.173 243.425C76.1852 243.573 76.1814 243.722 76.1617 243.869Z" fill="#263238"/>
<path d="M48.2024 218.764C48.2024 218.82 47.2639 218.882 45.7858 219.236C44.9308 219.443 44.0914 219.709 43.2737 220.034C42.2681 220.445 41.2949 220.932 40.3625 221.489C39.4417 222.066 38.5662 222.713 37.7436 223.423C37.0775 224.011 36.454 224.646 35.8778 225.322C34.8943 226.48 34.4053 227.295 34.3604 227.261C34.4449 227.063 34.5505 226.875 34.6751 226.699C34.8046 226.474 34.9472 226.256 35.1022 226.047C35.282 225.8 35.4731 225.485 35.726 225.215C36.2886 224.515 36.9049 223.859 37.5694 223.254C38.3932 222.52 39.2788 221.858 40.2164 221.276C41.1587 220.704 42.1498 220.217 43.1781 219.82C44.0211 219.502 44.8872 219.248 45.769 219.062C46.1399 218.972 46.4883 218.932 46.7862 218.887C47.0447 218.844 47.3056 218.816 47.5674 218.803C47.7773 218.77 47.99 218.756 48.2024 218.764Z" fill="#263238"/>
<path d="M62.7978 195.092C62.7706 195.184 62.7288 195.271 62.6741 195.35L62.2695 196.053C61.8873 196.693 61.3759 197.559 60.7465 198.61C59.4483 200.768 57.633 203.735 55.621 207.001C53.6091 210.266 51.7657 213.222 50.4225 215.352L48.8208 217.864L48.3769 218.538C48.3275 218.62 48.2691 218.695 48.2026 218.763C48.2026 218.763 48.2364 218.673 48.3263 218.51L48.7309 217.802C49.1131 217.167 49.6301 216.302 50.2539 215.245C51.5522 213.093 53.3674 210.125 55.3794 206.854C57.3913 203.584 59.2347 200.639 60.5779 198.509L62.1796 195.997L62.6236 195.322C62.6741 195.24 62.7324 195.163 62.7978 195.092Z" fill="#263238"/>
<g opacity="0.3">
<path d="M53.7158 216.7C59.7067 211.603 63.3429 202.774 62.7078 194.939L53.4292 210.473L53.7158 216.7Z" fill="black"/>
</g>
<g opacity="0.3">
<path d="M86.2441 157.605L97.501 183.07L101.547 175.477L107.724 177.697L100.199 170.127L98.108 179.113L86.2441 157.605Z" fill="black"/>
</g>
<g opacity="0.3">
<path d="M157.36 215.498C162.165 212.958 166.683 211.002 172.096 211.491C172.837 211.532 173.57 211.677 174.27 211.924C174.52 212.107 174.727 212.342 174.877 212.613C175.027 212.884 175.118 213.183 175.142 213.492C169.31 213.276 163.479 213.925 157.838 215.42" fill="black"/>
</g>
<g opacity="0.3">
<path d="M142.4 181.744C142.4 182.16 140.989 203.139 140.961 203.555C144.513 196.632 145.665 188.831 142.4 181.744Z" fill="black"/>
</g>
<path d="M111.186 78.8537C111.934 77.8651 112.97 77.1335 114.152 76.7599C115.334 76.3864 116.603 76.3895 117.784 76.7687C119.39 75.9006 121.241 75.595 123.042 75.9005C124.843 76.206 126.489 77.1051 127.72 78.4547C128.887 77.9903 130.153 77.8345 131.398 78.0023C132.643 78.1702 133.823 78.6561 134.825 79.413C135.827 80.17 136.617 81.1724 137.119 82.3237C137.621 83.475 137.817 84.7361 137.69 85.9855C138.966 85.9752 140.214 86.367 141.256 87.1054C142.297 87.8439 143.08 88.8915 143.493 90.0997C143.906 91.3079 143.928 92.6155 143.556 93.837C143.184 95.0585 142.437 96.1319 141.421 96.9051C142.718 97.5521 143.727 98.6574 144.255 100.007C144.782 101.356 144.79 102.853 144.276 104.208C143.762 105.562 142.764 106.678 141.474 107.338C140.184 107.998 138.695 108.155 137.296 107.78L111.276 85.7719C110.545 84.7703 110.145 83.5666 110.128 82.3271C110.112 81.0877 110.482 79.874 111.186 78.8537Z" fill="#263238"/>
<path d="M116.964 82.4785L115.693 82.2875C101.88 81.0286 93.0955 92.0607 92.2188 105.891L87.897 146.681L110.113 176.299L117.273 165.789L119.521 153.498C119.521 153.498 133.009 153.431 135.127 140.291C136.162 133.947 137.224 120.711 138.05 108.718C138.483 102.494 136.552 96.3346 132.643 91.4707C128.735 86.6068 123.136 83.3957 116.964 82.4785Z" fill="#FFBDA7"/>
<path d="M119.469 153.498C119.469 153.498 111.124 152.723 103.115 145.844C103.115 145.844 105.717 155.96 118.902 156.752L119.469 153.498Z" fill="#6F4439"/>
<path d="M131.508 121.954C131.439 122.444 131.182 122.889 130.79 123.192C130.398 123.495 129.904 123.634 129.412 123.578C129.169 123.561 128.932 123.496 128.716 123.386C128.499 123.276 128.306 123.124 128.149 122.939C127.992 122.753 127.873 122.538 127.801 122.306C127.728 122.074 127.702 121.83 127.726 121.588C127.801 121.102 128.061 120.664 128.452 120.366C128.842 120.067 129.333 119.932 129.822 119.987C130.062 120.004 130.297 120.068 130.512 120.177C130.727 120.285 130.919 120.435 131.076 120.618C131.232 120.801 131.351 121.013 131.426 121.242C131.5 121.472 131.528 121.713 131.508 121.954Z" fill="#263238"/>
<path d="M134.273 115.405C134.003 115.613 132.739 114.349 130.715 114.051C128.692 113.753 127.057 114.54 126.871 114.259C126.781 114.135 127.085 113.725 127.804 113.354C128.77 112.876 129.86 112.711 130.923 112.882C131.983 113.034 132.967 113.518 133.733 114.265C134.262 114.838 134.402 115.31 134.273 115.405Z" fill="#263238"/>
<path d="M114.378 119.706C114.309 120.197 114.052 120.641 113.66 120.945C113.268 121.248 112.774 121.386 112.282 121.33C112.039 121.314 111.803 121.25 111.586 121.14C111.369 121.031 111.177 120.88 111.019 120.695C110.862 120.51 110.744 120.295 110.671 120.063C110.598 119.832 110.573 119.588 110.596 119.346C110.664 118.855 110.922 118.411 111.313 118.106C111.704 117.802 112.199 117.662 112.692 117.717C112.935 117.733 113.172 117.798 113.389 117.907C113.606 118.017 113.799 118.169 113.956 118.354C114.114 118.54 114.232 118.755 114.304 118.987C114.377 119.22 114.402 119.464 114.378 119.706Z" fill="#263238"/>
<path d="M114.963 112.22C114.693 112.428 113.429 111.163 111.405 110.865C109.382 110.568 107.747 111.354 107.567 111.073C107.477 110.95 107.775 110.54 108.494 110.169C109.459 109.691 110.55 109.525 111.613 109.697C112.673 109.848 113.656 110.333 114.423 111.079C114.952 111.652 115.098 112.124 114.963 112.22Z" fill="#263238"/>
<path d="M119.374 128.208C119.374 128.09 120.672 128.062 122.746 128.107C123.269 128.135 123.775 128.107 123.915 127.764C124.037 127.236 123.996 126.684 123.797 126.18C123.499 124.859 123.19 123.471 122.858 122.021C121.583 116.103 120.734 111.27 120.976 111.219C121.217 111.169 122.448 115.923 123.724 121.841C124.027 123.302 124.32 124.69 124.595 126.017C124.702 126.635 124.938 127.354 124.556 128.085C124.454 128.256 124.314 128.401 124.148 128.511C123.981 128.62 123.792 128.689 123.595 128.714C123.298 128.751 122.998 128.751 122.701 128.714C120.639 128.506 119.368 128.326 119.374 128.208Z" fill="#263238"/>
<path d="M115.856 106.442C115.541 106.931 113.866 106.2 111.748 105.919C109.629 105.638 107.814 105.812 107.656 105.256C107.6 104.992 108.022 104.565 108.831 104.227C109.87 103.828 110.995 103.706 112.096 103.873C113.187 104.019 114.217 104.456 115.08 105.138C115.738 105.683 116.002 106.217 115.856 106.442Z" fill="#263238"/>
<path d="M134.644 109.79C134.256 110.229 132.885 109.65 131.193 109.515C129.501 109.38 128.051 109.616 127.753 109.11C127.624 108.869 127.883 108.419 128.535 108.02C129.412 107.552 130.409 107.355 131.399 107.455C132.389 107.555 133.327 107.948 134.093 108.582C134.655 109.082 134.818 109.588 134.644 109.79Z" fill="#263238"/>
<path d="M137.69 102.475C137.69 102.475 135.442 93.7083 131.772 91.1905C127.309 88.1388 124.466 93.1069 120.048 91.1399C115.631 89.1729 111.399 86.2449 106.184 89.0886C100.468 92.1965 102.463 95.2706 101.272 101.07C96.4332 124.556 91.0998 130.604 91.5438 119.262C91.5944 118.02 88.3517 116.542 88.6214 111.304C88.9755 104.51 89.9421 96.3441 92.1452 91.82C94.0054 88.004 96.703 85.5817 101.255 83.1483C108.443 79.3042 117.334 80.5294 123.269 82.0243C129.203 83.5192 139.758 92.2358 137.69 102.475Z" fill="#263238"/>
<path d="M92.4096 119.032C92.4663 118.546 92.4239 118.054 92.285 117.586C92.1461 117.117 91.9136 116.682 91.6015 116.305C91.2895 115.929 90.9043 115.62 90.4694 115.397C90.0345 115.174 89.5589 115.042 89.0714 115.008C86.5817 114.873 83.6424 115.856 83.0411 120.954C81.9789 129.996 91.2744 129.198 91.3194 128.94C91.3643 128.681 91.9994 122.82 92.4096 119.032Z" fill="#FFBDA7"/>
<path d="M89.7511 125.326C89.7174 125.292 89.5825 125.416 89.3015 125.506C88.9084 125.623 88.4853 125.582 88.1213 125.394C87.2052 124.933 86.5814 123.32 86.7275 121.684C86.7969 120.907 87.0388 120.154 87.4356 119.481C87.5534 119.209 87.7357 118.969 87.9668 118.783C88.1979 118.597 88.4708 118.47 88.762 118.413C88.9512 118.387 89.1437 118.429 89.3046 118.532C89.4655 118.635 89.584 118.792 89.6387 118.975C89.7342 119.245 89.6387 119.419 89.7005 119.436C89.7623 119.453 89.9141 119.307 89.886 118.925C89.8582 118.696 89.7554 118.482 89.5937 118.318C89.3664 118.102 89.0641 117.983 88.7507 117.986C88.3764 118.013 88.0147 118.133 87.6987 118.335C87.3826 118.537 87.1221 118.815 86.9411 119.144C86.4643 119.882 86.175 120.725 86.0981 121.6C85.9407 123.427 86.6601 125.242 87.9358 125.776C88.17 125.875 88.4236 125.92 88.6776 125.907C88.9316 125.895 89.1795 125.825 89.4026 125.703C89.7117 125.523 89.7792 125.326 89.7511 125.326Z" fill="#6F4439"/>
<path d="M95.2027 101.626C96.2537 102.599 97.3664 103.605 98.7546 103.959C100.143 104.313 101.868 103.74 102.318 102.38C102.52 101.773 102.475 101.019 102.958 100.598C103.52 100.092 104.414 100.413 105.161 100.598C106.461 100.899 107.824 100.743 109.021 100.157C110.219 99.57 111.178 98.5886 111.737 97.3777C112.254 98.4736 113.822 98.6647 114.929 98.1645C116.036 97.6643 116.845 96.6977 117.773 95.9165C118.7 95.1353 119.925 94.489 121.088 94.8375C121.74 95.0342 122.308 95.5231 122.982 95.5625C124.179 95.6355 124.966 94.3373 125.32 93.1908C125.674 92.0443 126.023 90.6955 127.119 90.2122C128.215 89.7289 129.282 90.2797 130.35 90.6056C131.418 90.9316 132.851 90.8866 133.289 89.8638C133.379 89.5867 133.411 89.2944 133.384 89.0047C133.356 88.7149 133.271 88.4336 133.132 88.1778C132.564 86.9798 131.609 86.0082 130.421 85.4199C129.233 84.8315 127.882 84.6607 126.585 84.935C126.366 83.3712 125.689 81.9073 124.638 80.7283C123.588 79.5493 122.212 78.7081 120.683 78.3112C119.155 77.9142 117.543 77.9792 116.052 78.498C114.561 79.0168 113.256 79.9661 112.304 81.2258C111.479 80.2153 110.422 79.419 109.223 78.9045C108.024 78.3901 106.719 78.1728 105.418 78.271C104.117 78.3692 102.859 78.78 101.75 79.4686C100.642 80.1573 99.7166 81.1032 99.0524 82.2262C97.9934 81.7685 96.8231 81.6328 95.6875 81.8361C94.5518 82.0394 93.5012 82.5726 92.6668 83.3693C91.8324 84.166 91.251 85.1908 90.9954 86.3158C90.7398 87.4408 90.8212 88.6161 91.2294 89.6952C89.4759 90.3752 87.8574 91.7746 87.537 93.6292C87.2167 95.4838 88.7566 97.6194 90.628 97.3946C90.143 98.0731 89.937 98.912 90.0526 99.738C90.1682 100.564 90.5966 101.314 91.2493 101.833C91.902 102.353 92.7292 102.601 93.56 102.528C94.3909 102.455 95.162 102.066 95.7141 101.441" fill="#263238"/>
<path d="M113.889 130.675C113.734 130.54 113.533 130.467 113.327 130.473C113.237 130.503 113.154 130.551 113.082 130.614C113.011 130.676 112.953 130.753 112.911 130.838C112.503 131.494 112.268 132.242 112.226 133.014C112.185 133.785 112.339 134.554 112.675 135.25C112.675 135.25 112.675 135.278 112.675 135.295C113.698 137.296 116.57 137.357 117.851 135.508L118.812 134.12L113.889 130.675Z" fill="#150505"/>
<path d="M117.244 136.166C117.312 136.206 116.491 136.987 114.828 136.908C114.369 136.874 113.927 136.721 113.546 136.464C113.089 136.193 112.713 135.805 112.456 135.34C111.98 134.263 111.863 133.061 112.124 131.912C112.176 131.611 112.251 131.314 112.349 131.024C112.4 130.848 112.488 130.684 112.606 130.544C112.724 130.404 112.87 130.29 113.035 130.209C113.212 130.156 113.399 130.15 113.579 130.19C113.759 130.231 113.926 130.316 114.063 130.439L114.693 130.906L116.851 132.547C118.07 133.491 118.795 134.115 118.75 134.182C118.705 134.25 117.885 133.75 116.603 132.89L114.355 131.356C113.951 131.091 113.439 130.619 113.231 130.76C113.024 130.9 112.793 131.485 112.669 132.024C112.436 133.046 112.519 134.114 112.905 135.087C113.109 135.478 113.411 135.81 113.782 136.048C114.091 136.281 114.455 136.43 114.839 136.481C115.654 136.561 116.477 136.454 117.244 136.166Z" fill="#263238"/>
<path d="M89.9705 97.2703C89.9424 97.2422 89.6895 98.0009 90.274 99.0855C90.6316 99.7258 91.2176 100.207 91.915 100.434C92.3601 100.575 92.831 100.616 93.2936 100.553C93.7563 100.489 94.1991 100.324 94.5901 100.069L94.2192 99.9566C94.5659 100.868 95.0595 101.717 95.6804 102.469C96.0896 102.983 96.5932 103.414 97.1641 103.739C97.907 104.116 98.7484 104.255 99.5732 104.137C100.398 104.018 101.166 103.647 101.772 103.076C102.22 102.561 102.561 101.963 102.778 101.317C102.887 101.092 102.948 100.847 102.958 100.597C102.919 100.597 102.807 100.817 102.593 101.232C102.318 101.816 101.95 102.352 101.503 102.817C100.457 103.981 97.5687 104.222 96.0794 102.132C95.4972 101.419 95.0254 100.624 94.68 99.7712L94.562 99.4846L94.3091 99.6588C93.982 99.8762 93.6122 100.021 93.2246 100.084C92.8369 100.147 92.4402 100.127 92.0611 100.024C91.4417 99.8427 90.9088 99.4435 90.5606 98.9001C90.2588 98.4008 90.0583 97.847 89.9705 97.2703Z" fill="#455A64"/>
<path d="M110.062 79.2757C110.062 79.3038 110.287 79.3713 110.663 79.6017C111.201 79.9349 111.626 80.4226 111.883 81.0011L111.962 81.1865L112.113 81.0404C113.47 79.685 115.148 78.6968 116.991 78.1686C118.181 77.834 119.427 77.7517 120.65 77.9269C121.998 78.1407 123.261 78.7243 124.297 79.6129C125.115 80.2974 125.778 81.148 126.242 82.1082C126.657 83.0026 126.85 83.9839 126.804 84.9688V85.2554L127.091 85.2217C128.399 85.0751 129.714 85.4395 130.76 86.2389C131.581 86.8727 132.182 87.7472 132.48 88.7398C132.721 89.6353 132.775 90.5708 132.638 91.488C132.762 91.2669 132.837 91.0214 132.857 90.7686C132.976 90.0674 132.944 89.3486 132.761 88.6611C132.488 87.5831 131.875 86.6215 131.013 85.9186C129.893 85.0185 128.464 84.5964 127.034 84.744L127.304 84.9969C127.36 83.9274 127.153 82.8606 126.703 81.889C126.213 80.8582 125.505 79.9456 124.629 79.2139C123.511 78.2672 122.146 77.6572 120.695 77.4548C119.403 77.2752 118.088 77.3787 116.84 77.7583C114.936 78.3307 113.221 79.4064 111.877 80.8718L112.108 80.9111C111.811 80.2966 111.316 79.7997 110.703 79.5005C110.513 79.3688 110.292 79.2911 110.062 79.2757Z" fill="#455A64"/>
</svg>
