<svg width="500" height="500" viewBox="0 0 500 500" fill="none" xmlns="http://www.w3.org/2000/svg">
<path d="M283.85 183.571C289.13 183.571 420.85 182.651 458 182.651C460.6 182.651 457.31 178.151 455.88 177.831C451.31 176.831 446.54 176.781 441.88 176.301C437.303 175.876 432.816 174.764 428.57 173.001C424.91 171.461 421.26 169.671 417.29 169.001C409.63 167.801 402.91 172.001 395.72 173.791C393.537 174.422 391.247 174.588 388.995 174.28C386.744 173.972 384.583 173.195 382.65 172.001C379.33 170.001 376.31 167.621 372.84 165.861C366.196 162.586 358.948 160.719 351.549 160.375C344.15 160.03 336.759 161.217 329.84 163.861C326.543 165.129 323.389 166.741 320.43 168.671C316.92 170.981 313.89 173.921 310.37 176.201C302.57 181.201 292.93 179.601 284.42 182.491C283.92 182.691 283.39 183.571 283.85 183.571Z" fill="#EBEBEB"/>
<path d="M276.28 65.56C283.28 65.56 400.66 66.33 408.04 66.1C408.57 66.1 408.85 65.3 408.33 65.04C403.67 62.74 398.4 63.2 393.57 61.57C390.72 60.57 388.97 58.75 387 56.57C385.368 54.7018 383.255 53.3181 380.89 52.57C378.729 51.9211 376.437 51.8487 374.24 52.36C371.86 52.93 369.79 54.29 367.52 55.15C361.88 57.28 356.4 55.26 352.37 51.09C349.05 47.65 345.78 44.4 341.27 42.55C339.426 41.7158 337.43 41.2711 335.406 41.2435C333.383 41.216 331.375 41.6063 329.51 42.39C325.2 44.34 322.25 48.26 318.2 50.62C313.41 53.42 307.67 52.76 302.38 53.62C297.09 54.48 293.02 58.93 288.38 61.5C286.866 62.4715 285.117 63.0141 283.32 63.07C282.32 63.07 281.26 62.76 280.24 62.63C278.64 62.43 277.12 62.48 276.04 63.81C275.77 64.18 275.83 65.56 276.28 65.56Z" fill="#EBEBEB"/>
<path d="M41.3299 126.57C46.4199 126.57 132.13 127.14 137.52 126.96C137.9 126.96 138.11 126.38 137.73 126.19C134.33 124.51 130.48 124.85 126.95 123.66C124.87 122.96 123.6 121.6 122.16 120.05C120.965 118.691 119.423 117.682 117.7 117.13C116.121 116.656 114.445 116.604 112.84 116.98C111.163 117.543 109.523 118.211 107.93 118.98C103.82 120.53 99.8199 119.06 96.8799 115.98C94.4499 113.47 92.0699 111.1 88.7699 109.75C87.4252 109.14 85.9689 108.815 84.4925 108.794C83.016 108.773 81.5512 109.058 80.1899 109.63C77.0399 111.05 74.8799 113.92 71.9299 115.63C68.4299 117.68 64.2399 117.19 60.3799 117.81C56.5199 118.43 53.5399 121.68 50.1499 123.56C49.0443 124.272 47.7644 124.666 46.4499 124.7C45.6999 124.7 44.9499 124.48 44.1999 124.39C43.66 124.239 43.0891 124.24 42.5495 124.391C42.0099 124.543 41.5223 124.84 41.1399 125.25C40.9999 125.57 40.9999 126.57 41.3299 126.57Z" fill="#EBEBEB"/>
<path d="M359.85 128.801C364.95 128.801 450.66 129.371 456.04 129.191C456.43 129.191 456.64 128.611 456.25 128.421C452.86 126.741 449.01 127.081 445.48 125.891C443.4 125.191 442.13 123.831 440.69 122.281C439.495 120.922 437.954 119.913 436.23 119.361C434.651 118.887 432.975 118.835 431.37 119.211C429.693 119.773 428.053 120.441 426.46 121.211C422.34 122.761 418.34 121.291 415.4 118.211C412.98 115.701 410.59 113.331 407.3 111.981C405.954 111.371 404.496 111.045 403.018 111.024C401.539 111.004 400.073 111.289 398.71 111.861C395.57 113.281 393.41 116.151 390.46 117.861C386.96 119.861 382.77 119.421 378.9 120.041C375.03 120.661 372.07 123.911 368.68 125.791C367.587 126.522 366.314 126.941 365 127.001C364.245 126.934 363.494 126.827 362.75 126.681C362.209 126.532 361.638 126.535 361.099 126.688C360.559 126.842 360.072 127.14 359.69 127.551C359.48 127.791 359.52 128.801 359.85 128.801Z" fill="#EBEBEB"/>
<path d="M125.28 212.221C130.38 212.221 216.09 212.791 221.48 212.611C221.86 212.611 222.07 212.031 221.69 211.841C218.29 210.161 214.44 210.501 210.91 209.311C208.83 208.611 207.56 207.251 206.12 205.701C204.925 204.342 203.383 203.333 201.66 202.781C200.081 202.307 198.405 202.255 196.8 202.631C195.123 203.193 193.483 203.861 191.89 204.631C187.78 206.181 183.77 204.711 180.89 201.631C178.46 199.121 176.08 196.751 172.78 195.401C171.433 194.791 169.975 194.465 168.497 194.444C167.019 194.424 165.553 194.708 164.19 195.281C161.05 196.701 158.89 199.571 155.94 201.281C152.44 203.281 148.25 202.841 144.39 203.461C140.53 204.081 137.55 207.331 134.16 209.211C133.054 209.922 131.774 210.317 130.46 210.351C129.705 210.283 128.954 210.176 128.21 210.031C127.669 209.883 127.098 209.887 126.559 210.04C126.02 210.193 125.532 210.491 125.15 210.901C124.91 211.221 125 212.221 125.28 212.221Z" fill="#EBEBEB"/>
<path d="M87.5598 164.051C87.6598 164.341 222.66 164.051 220.95 164.051C220.18 164.051 222.13 162.891 221.37 162.511C216.98 160.331 212.17 160.271 207.37 159.831C204.538 159.71 201.758 159.03 199.19 157.831C196.65 156.501 195.06 154.181 193.26 152.051C190.478 148.755 186.901 146.222 182.868 144.693C178.835 143.164 174.478 142.688 170.21 143.311C160.61 144.821 153.04 152.131 143.43 153.471C137.65 154.281 132.19 152.051 126.54 151.261C122.174 150.66 117.73 151.473 113.86 153.581C110.86 155.091 108 156.361 104.56 156.581C101.92 156.761 99.2699 156.461 96.6199 156.431C92.3014 156.539 88.1703 158.217 84.9999 161.151C84.5199 161.521 83.1598 164.051 87.5598 164.051Z" fill="#EBEBEB"/>
<path d="M319.92 173.99H180.08V369.11H319.92V173.99Z" fill="#407BFF"/>
<path opacity="0.7" d="M319.92 173.99H180.08V369.11H319.92V173.99Z" fill="white"/>
<path d="M299.92 303.041H200.08V308.071H299.92V303.041Z" fill="#407BFF"/>
<path d="M280.56 308.07H219.5V365.12H280.56V308.07Z" fill="#455A64"/>
<path d="M276.45 312.279H223.61V365.119H276.45V312.279Z" fill="#37474F"/>
<g opacity="0.5">
<path d="M276.45 334.33V344.14L255.48 365.12H245.67L276.45 334.33Z" fill="#455A64"/>
<path d="M237.41 312.279L223.62 326.069V316.259L227.59 312.279H237.41Z" fill="#455A64"/>
<path d="M266.89 312.279L223.62 355.559V350.659L261.99 312.279H266.89Z" fill="#455A64"/>
<path d="M276.45 349.24V354.15L265.48 365.12H260.57L276.45 349.24Z" fill="#455A64"/>
<path d="M276.45 317.189V318.079L229.43 365.119H228.51L276.45 317.189Z" fill="#455A64"/>
<path d="M243.13 312.279L223.62 331.789V330.879L242.22 312.279H243.13Z" fill="#455A64"/>
<path d="M259.77 312.279L223.62 348.429V347.509L258.85 312.279H259.77Z" fill="#455A64"/>
</g>
<path d="M251.74 312.279H248.34V365.119H251.74V312.279Z" fill="#455A64"/>
<path d="M223.7 195.27H201.9V229.06H223.7V195.27Z" fill="#455A64"/>
<path d="M221.46 197.75H204.15V226.59H221.46V197.75Z" fill="#37474F"/>
<path d="M226.82 229.061H198.78V233.921H226.82V229.061Z" fill="#407BFF"/>
<g opacity="0.5">
<path d="M221.46 197.75V201.31L204.14 218.63V212.04L218.44 197.75H221.46Z" fill="#455A64"/>
<path d="M221.46 219.131V222.421L217.29 226.591H214L221.46 219.131Z" fill="#455A64"/>
<path d="M209.97 197.75L204.14 203.58V200.28L206.67 197.75H209.97Z" fill="#455A64"/>
<path d="M221.46 213.971V215.031L209.89 226.591H208.83L221.46 213.971Z" fill="#455A64"/>
</g>
<path d="M223.7 214.711H201.9V217.181H223.7V214.711Z" fill="#455A64"/>
<path d="M260.9 195.27H239.1V229.06H260.9V195.27Z" fill="#455A64"/>
<path d="M258.66 197.75H241.35V226.59H258.66V197.75Z" fill="#37474F"/>
<path d="M264.02 229.061H235.98V233.921H264.02V229.061Z" fill="#407BFF"/>
<g opacity="0.5">
<path d="M258.66 197.75V201.31L241.34 218.63V212.04L255.64 197.75H258.66Z" fill="#455A64"/>
<path d="M258.66 219.131V222.421L254.49 226.591H251.19L258.66 219.131Z" fill="#455A64"/>
<path d="M247.17 197.75L241.34 203.58V200.28L243.87 197.75H247.17Z" fill="#455A64"/>
<path d="M258.66 213.971V215.031L247.09 226.591H246.03L258.66 213.971Z" fill="#455A64"/>
</g>
<path d="M260.9 214.711H239.1V217.181H260.9V214.711Z" fill="#455A64"/>
<path d="M298.1 195.27H276.3V229.06H298.1V195.27Z" fill="#455A64"/>
<path d="M295.86 197.75H278.55V226.59H295.86V197.75Z" fill="#37474F"/>
<path d="M301.22 229.061H273.18V233.921H301.22V229.061Z" fill="#407BFF"/>
<g opacity="0.5">
<path d="M295.86 197.75V201.31L278.54 218.63V212.04L292.84 197.75H295.86Z" fill="#455A64"/>
<path d="M295.86 219.131V222.421L291.69 226.591H288.4L295.86 219.131Z" fill="#455A64"/>
<path d="M284.37 197.75L278.54 203.58V200.28L281.07 197.75H284.37Z" fill="#455A64"/>
<path d="M295.86 213.971V215.031L284.29 226.591H283.23L295.86 213.971Z" fill="#455A64"/>
</g>
<path d="M298.1 214.711H276.3V217.181H298.1V214.711Z" fill="#455A64"/>
<path d="M223.7 246.301H201.9V280.091H223.7V246.301Z" fill="#455A64"/>
<path d="M221.46 248.77H204.15V277.61H221.46V248.77Z" fill="#37474F"/>
<path d="M226.82 280.09H198.78V284.95H226.82V280.09Z" fill="#407BFF"/>
<g opacity="0.5">
<path d="M221.46 248.77V252.34L204.14 269.65V263.07L218.44 248.77H221.46Z" fill="#455A64"/>
<path d="M221.46 270.15V273.45L217.29 277.62H214L221.46 270.15Z" fill="#455A64"/>
<path d="M209.97 248.77L204.14 254.6V251.31L206.67 248.77H209.97Z" fill="#455A64"/>
<path d="M221.46 264.99V266.05L209.89 277.62H208.83L221.46 264.99Z" fill="#455A64"/>
</g>
<path d="M223.7 265.74H201.9V268.21H223.7V265.74Z" fill="#455A64"/>
<path d="M260.9 246.301H239.1V280.091H260.9V246.301Z" fill="#455A64"/>
<path d="M258.66 248.77H241.35V277.61H258.66V248.77Z" fill="#37474F"/>
<path d="M264.02 280.09H235.98V284.95H264.02V280.09Z" fill="#407BFF"/>
<g opacity="0.5">
<path d="M258.66 248.77V252.34L241.34 269.65V263.07L255.64 248.77H258.66Z" fill="#455A64"/>
<path d="M258.66 270.15V273.45L254.49 277.62H251.19L258.66 270.15Z" fill="#455A64"/>
<path d="M247.17 248.77L241.34 254.6V251.31L243.87 248.77H247.17Z" fill="#455A64"/>
<path d="M258.66 264.99V266.05L247.09 277.62H246.03L258.66 264.99Z" fill="#455A64"/>
</g>
<path d="M260.9 265.74H239.1V268.21H260.9V265.74Z" fill="#455A64"/>
<path d="M298.1 246.301H276.3V280.091H298.1V246.301Z" fill="#455A64"/>
<path d="M295.86 248.77H278.55V277.61H295.86V248.77Z" fill="#37474F"/>
<path d="M301.22 280.09H273.18V284.95H301.22V280.09Z" fill="#407BFF"/>
<g opacity="0.5">
<path d="M295.86 248.77V252.34L278.54 269.65V263.07L292.84 248.77H295.86Z" fill="#455A64"/>
<path d="M295.86 270.15V273.45L291.69 277.62H288.4L295.86 270.15Z" fill="#455A64"/>
<path d="M284.37 248.77L278.54 254.6V251.31L281.07 248.77H284.37Z" fill="#455A64"/>
<path d="M295.86 264.99V266.05L284.29 277.62H283.23L295.86 264.99Z" fill="#455A64"/>
</g>
<path d="M298.1 265.74H276.3V268.21H298.1V265.74Z" fill="#455A64"/>
<path opacity="0.5" d="M319.92 292.92H180.08V294.63L319.92 293.77V292.92Z" fill="#407BFF"/>
<path d="M319.92 290.541H180.08V292.921H319.92V290.541Z" fill="white"/>
<path opacity="0.5" d="M319.92 240.34H180.08V242.06L319.92 241.2V240.34Z" fill="#407BFF"/>
<path d="M319.92 237.961H180.08V240.341H319.92V237.961Z" fill="white"/>
<path opacity="0.5" d="M319.92 187.77H180.08V189.49L319.92 188.63V187.77Z" fill="#407BFF"/>
<path d="M319.92 185.391H180.08V187.771H319.92V185.391Z" fill="white"/>
<path d="M180.08 173.99H174.08V369.11H180.08V173.99Z" fill="#407BFF"/>
<path opacity="0.8" d="M180.08 173.99H174.08V369.11H180.08V173.99Z" fill="white"/>
<path d="M325.92 173.99H319.92V369.11H325.92V173.99Z" fill="#407BFF"/>
<path opacity="0.8" d="M325.92 173.99H319.92V369.11H325.92V173.99Z" fill="white"/>
<path d="M295.69 308.07H290.53V365.12H295.69V308.07Z" fill="#407BFF"/>
<path opacity="0.9" d="M295.69 308.07H290.53V365.12H295.69V308.07Z" fill="white"/>
<path d="M209.47 308.07H204.31V365.12H209.47V308.07Z" fill="#407BFF"/>
<path opacity="0.9" d="M209.47 308.07H204.31V365.12H209.47V308.07Z" fill="white"/>
<path d="M305.73 367.131H194.26V369.141H305.73V367.131Z" fill="#EBEBEB"/>
<path d="M300.3 365.121H199.7V367.131H300.3V365.121Z" fill="#EBEBEB"/>
<path d="M300.3 366.621L199.7 366.121V367.131H300.3V366.621Z" fill="#DBDBDB"/>
<path d="M174.09 228.051H49.6299V369.121H174.09V228.051Z" fill="#407BFF"/>
<path opacity="0.7" d="M174.09 228.051H49.6299V369.121H174.09V228.051Z" fill="white"/>
<path opacity="0.5" d="M174.09 347.791H49.6299V369.121H174.09V347.791Z" fill="#407BFF"/>
<path d="M85.55 246.061H63.75V279.851H85.55V246.061Z" fill="#455A64"/>
<path d="M83.31 248.529H66V277.369H83.31V248.529Z" fill="#37474F"/>
<path d="M88.6699 279.85H60.6299V284.71H88.6699V279.85Z" fill="#407BFF"/>
<g opacity="0.5">
<path d="M83.31 248.541V252.101L66 269.421V262.831L80.29 248.541H83.31Z" fill="#455A64"/>
<path d="M83.3101 269.922V273.212L79.1401 277.382H75.8501L83.3101 269.922Z" fill="#455A64"/>
<path d="M71.83 248.541L66 254.371V251.071L68.52 248.541H71.83Z" fill="#455A64"/>
<path d="M83.3099 264.762V265.812L71.7499 277.382H70.6899L83.3099 264.762Z" fill="#455A64"/>
</g>
<path d="M85.55 265.5H63.75V267.97H85.55V265.5Z" fill="#455A64"/>
<path d="M122.75 246.061H100.95V279.851H122.75V246.061Z" fill="#455A64"/>
<path d="M120.51 248.529H103.2V277.369H120.51V248.529Z" fill="#37474F"/>
<path d="M125.87 279.85H97.8301V284.71H125.87V279.85Z" fill="#407BFF"/>
<g opacity="0.5">
<path d="M120.51 248.541V252.101L103.2 269.421V262.831L117.49 248.541H120.51Z" fill="#455A64"/>
<path d="M120.51 269.922V273.212L116.34 277.382H113.05L120.51 269.922Z" fill="#455A64"/>
<path d="M109.03 248.541L103.2 254.371V251.071L105.72 248.541H109.03Z" fill="#455A64"/>
<path d="M120.51 264.762V265.812L108.94 277.382H107.89L120.51 264.762Z" fill="#455A64"/>
</g>
<path d="M122.75 265.5H100.95V267.97H122.75V265.5Z" fill="#455A64"/>
<path d="M159.95 246.061H138.15V279.851H159.95V246.061Z" fill="#455A64"/>
<path d="M157.71 248.529H140.4V277.369H157.71V248.529Z" fill="#37474F"/>
<path d="M163.07 279.85H135.03V284.71H163.07V279.85Z" fill="#407BFF"/>
<g opacity="0.5">
<path d="M157.71 248.541V252.101L140.4 269.421V262.831L154.69 248.541H157.71Z" fill="#455A64"/>
<path d="M157.71 269.922V273.212L153.54 277.382H150.25L157.71 269.922Z" fill="#455A64"/>
<path d="M146.23 248.541L140.4 254.371V251.071L142.93 248.541H146.23Z" fill="#455A64"/>
<path d="M157.71 264.762V265.812L146.15 277.382H145.09L157.71 264.762Z" fill="#455A64"/>
</g>
<path d="M159.95 265.5H138.15V267.97H159.95V265.5Z" fill="#455A64"/>
<path d="M85.55 297.08H63.75V330.87H85.55V297.08Z" fill="#455A64"/>
<path d="M83.31 299.561H66V328.401H83.31V299.561Z" fill="#37474F"/>
<path d="M88.6699 330.881H60.6299V335.741H88.6699V330.881Z" fill="#407BFF"/>
<g opacity="0.5">
<path d="M83.31 299.561V303.131L66 320.441V313.861L80.29 299.561H83.31Z" fill="#455A64"/>
<path d="M83.3101 320.941V324.241L79.1401 328.401H75.8501L83.3101 320.941Z" fill="#455A64"/>
<path d="M71.83 299.561L66 305.391V302.101L68.52 299.561H71.83Z" fill="#455A64"/>
<path d="M83.3099 315.781V316.841L71.7499 328.401H70.6899L83.3099 315.781Z" fill="#455A64"/>
</g>
<path d="M85.55 316.52H63.75V318.99H85.55V316.52Z" fill="#455A64"/>
<path d="M122.75 297.08H100.95V330.87H122.75V297.08Z" fill="#455A64"/>
<path d="M120.51 299.561H103.2V328.401H120.51V299.561Z" fill="#37474F"/>
<path d="M125.87 330.881H97.8301V335.741H125.87V330.881Z" fill="#407BFF"/>
<g opacity="0.5">
<path d="M120.51 299.561V303.131L103.2 320.441V313.861L117.49 299.561H120.51Z" fill="#455A64"/>
<path d="M120.51 320.941V324.241L116.34 328.401H113.05L120.51 320.941Z" fill="#455A64"/>
<path d="M109.03 299.561L103.2 305.391V302.101L105.72 299.561H109.03Z" fill="#455A64"/>
<path d="M120.51 315.781V316.841L108.94 328.401H107.89L120.51 315.781Z" fill="#455A64"/>
</g>
<path d="M122.75 316.52H100.95V318.99H122.75V316.52Z" fill="#455A64"/>
<path d="M159.95 297.08H138.15V330.87H159.95V297.08Z" fill="#455A64"/>
<path d="M157.71 299.561H140.4V328.401H157.71V299.561Z" fill="#37474F"/>
<path d="M163.07 330.881H135.03V335.741H163.07V330.881Z" fill="#407BFF"/>
<g opacity="0.5">
<path d="M157.71 299.561V303.131L140.4 320.441V313.861L154.69 299.561H157.71Z" fill="#455A64"/>
<path d="M157.71 320.941V324.241L153.54 328.401H150.25L157.71 320.941Z" fill="#455A64"/>
<path d="M146.23 299.561L140.4 305.391V302.101L142.93 299.561H146.23Z" fill="#455A64"/>
<path d="M157.71 315.781V316.841L146.15 328.401H145.09L157.71 315.781Z" fill="#455A64"/>
</g>
<path d="M159.95 316.52H138.15V318.99H159.95V316.52Z" fill="#455A64"/>
<path d="M174.08 221.02H45.3799V228.05H174.08V221.02Z" fill="#407BFF"/>
<path opacity="0.5" d="M174.08 291.33H49.6299V293.04L174.08 292.18V291.33Z" fill="#407BFF"/>
<path d="M174.09 288.951H49.6299V291.331H174.09V288.951Z" fill="white"/>
<path opacity="0.5" d="M164.95 228.051H174.08V369.121H171.15L164.95 228.051Z" fill="#407BFF"/>
<path d="M325.91 369.121H450.37V228.051L325.91 228.051V369.121Z" fill="#407BFF"/>
<path opacity="0.7" d="M325.91 369.121H450.37V228.051L325.91 228.051V369.121Z" fill="white"/>
<path d="M361.84 246.061H340.04V279.851H361.84V246.061Z" fill="#455A64"/>
<path d="M359.6 248.529H342.29V277.369H359.6V248.529Z" fill="#37474F"/>
<path d="M364.96 279.85H336.92V284.71H364.96V279.85Z" fill="#407BFF"/>
<g opacity="0.5">
<path d="M359.6 248.541V252.101L342.29 269.421V262.831L356.58 248.541H359.6Z" fill="#455A64"/>
<path d="M359.6 269.922V273.212L355.43 277.382H352.14L359.6 269.922Z" fill="#455A64"/>
<path d="M348.12 248.541L342.29 254.371V251.071L344.82 248.541H348.12Z" fill="#455A64"/>
<path d="M359.6 264.762V265.812L348.04 277.382H346.98L359.6 264.762Z" fill="#455A64"/>
</g>
<path d="M361.84 265.5H340.04V267.97H361.84V265.5Z" fill="#455A64"/>
<path d="M399.04 246.061H377.24V279.851H399.04V246.061Z" fill="#455A64"/>
<path d="M396.8 248.529H379.49V277.369H396.8V248.529Z" fill="#37474F"/>
<path d="M402.16 279.85H374.12V284.71H402.16V279.85Z" fill="#407BFF"/>
<g opacity="0.5">
<path d="M396.8 248.541V252.101L379.49 269.421V262.831L393.78 248.541H396.8Z" fill="#455A64"/>
<path d="M396.8 269.922V273.212L392.63 277.382H389.34L396.8 269.922Z" fill="#455A64"/>
<path d="M385.32 248.541L379.49 254.371V251.071L382.02 248.541H385.32Z" fill="#455A64"/>
<path d="M396.8 264.762V265.812L385.24 277.382H384.18L396.8 264.762Z" fill="#455A64"/>
</g>
<path d="M399.04 265.5H377.24V267.97H399.04V265.5Z" fill="#455A64"/>
<path d="M436.24 246.061H414.44V279.851H436.24V246.061Z" fill="#455A64"/>
<path d="M434 248.529H416.69V277.369H434V248.529Z" fill="#37474F"/>
<path d="M439.36 279.85H411.32V284.71H439.36V279.85Z" fill="#407BFF"/>
<g opacity="0.5">
<path d="M434 248.541V252.101L416.69 269.421V262.831L430.98 248.541H434Z" fill="#455A64"/>
<path d="M434 269.922V273.212L429.83 277.382H426.54L434 269.922Z" fill="#455A64"/>
<path d="M422.52 248.541L416.69 254.371V251.071L419.22 248.541H422.52Z" fill="#455A64"/>
<path d="M434 264.762V265.812L422.44 277.382H421.38L434 264.762Z" fill="#455A64"/>
</g>
<path d="M436.24 265.5H414.44V267.97H436.24V265.5Z" fill="#455A64"/>
<path d="M361.84 297.08H340.04V330.87H361.84V297.08Z" fill="#455A64"/>
<path d="M359.6 299.561H342.29V328.401H359.6V299.561Z" fill="#37474F"/>
<path d="M364.96 330.881H336.92V335.741H364.96V330.881Z" fill="#407BFF"/>
<g opacity="0.5">
<path d="M359.6 299.561V303.131L342.29 320.441V313.861L356.58 299.561H359.6Z" fill="#455A64"/>
<path d="M359.6 320.941V324.241L355.43 328.401H352.14L359.6 320.941Z" fill="#455A64"/>
<path d="M348.12 299.561L342.29 305.391V302.101L344.82 299.561H348.12Z" fill="#455A64"/>
<path d="M359.6 315.781V316.841L348.04 328.401H346.98L359.6 315.781Z" fill="#455A64"/>
</g>
<path d="M361.84 316.52H340.04V318.99H361.84V316.52Z" fill="#455A64"/>
<path d="M399.04 297.08H377.24V330.87H399.04V297.08Z" fill="#455A64"/>
<path d="M396.8 299.561H379.49V328.401H396.8V299.561Z" fill="#37474F"/>
<path d="M402.16 330.881H374.12V335.741H402.16V330.881Z" fill="#407BFF"/>
<g opacity="0.5">
<path d="M396.8 299.561V303.131L379.49 320.441V313.861L393.78 299.561H396.8Z" fill="#455A64"/>
<path d="M396.8 320.941V324.241L392.63 328.401H389.34L396.8 320.941Z" fill="#455A64"/>
<path d="M385.32 299.561L379.49 305.391V302.101L382.02 299.561H385.32Z" fill="#455A64"/>
<path d="M396.8 315.781V316.841L385.24 328.401H384.18L396.8 315.781Z" fill="#455A64"/>
</g>
<path d="M399.04 316.52H377.24V318.99H399.04V316.52Z" fill="#455A64"/>
<path d="M436.24 297.08H414.44V330.87H436.24V297.08Z" fill="#455A64"/>
<path d="M434 299.561H416.69V328.401H434V299.561Z" fill="#37474F"/>
<path d="M439.36 330.881H411.32V335.741H439.36V330.881Z" fill="#407BFF"/>
<g opacity="0.5">
<path d="M434 299.561V303.131L416.69 320.441V313.861L430.98 299.561H434Z" fill="#455A64"/>
<path d="M434 320.941V324.241L429.83 328.401H426.54L434 320.941Z" fill="#455A64"/>
<path d="M422.52 299.561L416.69 305.391V302.101L419.22 299.561H422.52Z" fill="#455A64"/>
<path d="M434 315.781V316.841L422.44 328.401H421.38L434 315.781Z" fill="#455A64"/>
</g>
<path d="M436.24 316.52H414.44V318.99H436.24V316.52Z" fill="#455A64"/>
<path d="M325.92 228.051L454.62 228.051V221.021L325.92 221.021V228.051Z" fill="#407BFF"/>
<path opacity="0.5" d="M450.38 347.791H325.92V369.121H450.38V347.791Z" fill="#407BFF"/>
<path opacity="0.5" d="M450.37 291.33H325.92V293.04L450.37 292.18V291.33Z" fill="#407BFF"/>
<path d="M450.38 288.951H325.92V291.331H450.38V288.951Z" fill="white"/>
<path opacity="0.5" d="M335.05 228.051H325.92V369.121H328.85L335.05 228.051Z" fill="#407BFF"/>
<g opacity="0.5">
<path d="M66.7299 339.441H58.6099V342.241H66.7299V339.441Z" fill="#407BFF"/>
<path d="M62.2 345.781C59.8 345.781 56.47 345.891 54.09 345.891H54V342.891H54.13C56.52 342.891 59.89 342.891 62.24 342.951H62.31V343.001L62.24 345.811L62.2 345.781ZM62.2 345.781L62.14 343.001L62.2 343.071C60.85 343.071 59.5 343.071 58.15 343.071H54.09L54.21 342.941V345.751L54.1 345.631C56.43 345.631 59.84 345.701 62.21 345.751L62.2 345.781Z" fill="#407BFF"/>
<path d="M199.59 261.501C197.18 261.501 193.85 261.611 191.47 261.611H191.36V258.611H191.49C193.88 258.611 197.25 258.611 199.61 258.671H199.67V258.731L199.61 261.541L199.59 261.501ZM199.59 261.501L199.52 258.691L199.59 258.761C198.23 258.761 196.88 258.761 195.53 258.761H191.47L191.59 258.631V261.441L191.48 261.321C193.81 261.321 197.23 261.401 199.6 261.441L199.59 261.501Z" fill="#407BFF"/>
<path d="M195.06 262.23H186.94V265.03H195.06V262.23Z" fill="#407BFF"/>
<path d="M190.55 261.5C188.14 261.5 184.81 261.61 182.43 261.61H182.32V261.5V258.69V258.57H182.45C184.84 258.57 188.21 258.57 190.57 258.63H190.63V258.69L190.57 261.5H190.55ZM190.55 261.5L190.48 258.69L190.55 258.76C189.19 258.76 187.84 258.76 186.49 258.76H182.43L182.55 258.63V261.44L182.44 261.32C184.77 261.32 188.19 261.4 190.56 261.44L190.55 261.5Z" fill="#407BFF"/>
<path d="M441.88 241.201C439.47 241.201 436.14 241.321 433.76 241.311H433.65V238.311H433.78C436.17 238.311 439.54 238.311 441.9 238.381H441.96V238.441L441.9 241.241L441.88 241.201ZM441.88 241.201L441.81 238.401L441.88 238.461H437.82H433.76L433.88 238.341V241.141L433.77 241.031C436.1 241.031 439.52 241.101 441.89 241.141L441.88 241.201Z" fill="#407BFF"/>
<path d="M441.88 298.491C439.47 298.491 436.14 298.611 433.76 298.611H433.65V295.561H433.78C436.17 295.561 439.54 295.561 441.9 295.631H441.96V295.691L441.9 298.491H441.88ZM441.88 298.491L441.81 295.691L441.88 295.751L437.82 295.801H433.76L433.88 295.681V298.481L433.77 298.371C436.1 298.371 439.52 298.441 441.89 298.481L441.88 298.491Z" fill="#407BFF"/>
<path d="M446.35 234.852H438.23V237.652H446.35V234.852Z" fill="#407BFF"/>
<path d="M343.56 240.66H335.44V243.46H343.56V240.66Z" fill="#407BFF"/>
<path d="M343.59 345.051C341.18 345.051 337.85 345.171 335.47 345.161H335.36V345.051V342.251V342.121H335.49C337.88 342.121 341.25 342.121 343.61 342.181H343.67V342.251L343.61 345.051H343.59ZM343.59 345.051L343.52 342.251L343.59 342.311C342.23 342.311 340.88 342.311 339.53 342.311H335.47L335.59 342.191V344.991L335.48 344.871C337.81 344.871 341.23 344.951 343.6 344.991L343.59 345.051Z" fill="#407BFF"/>
<path d="M348.06 338.701H339.94V341.501H348.06V338.701Z" fill="#407BFF"/>
<path d="M437.33 237.661C434.93 237.661 431.6 237.781 429.22 237.771H429.1V234.771H429.23C431.62 234.771 434.99 234.771 437.34 234.831H437.41V234.891L437.34 237.691L437.33 237.661ZM437.33 237.661L437.27 234.861L437.33 234.921L433.28 234.971H429.22L429.34 234.851V237.651L429.23 237.541C431.56 237.541 434.97 237.611 437.34 237.651L437.33 237.661Z" fill="#407BFF"/>
<path d="M102.84 267.14C100.43 267.14 97.0999 267.26 94.7199 267.26H94.6099V264.26H94.7399C97.1299 264.26 100.5 264.26 102.86 264.32H102.92V264.38L102.86 267.18L102.84 267.14ZM102.84 267.14L102.78 264.34L102.84 264.4L98.7799 264.45H94.7199L94.8499 264.32V267.12L94.7399 267.01C97.0699 267.01 100.49 267.08 102.86 267.12L102.84 267.14Z" fill="#407BFF"/>
<path d="M195.09 344.081C192.68 344.081 189.35 344.201 186.97 344.191H186.86V341.191H187C189.39 341.191 192.76 341.191 195.12 341.251H195.18V341.321L195.12 344.121L195.09 344.081ZM195.09 344.081L195.03 341.281L195.09 341.341L191.03 341.391H187L187.13 341.271V344.071L187 344.001C189.33 344.001 192.75 344.071 195.12 344.111L195.09 344.081Z" fill="#407BFF"/>
<path d="M93.7998 267.14C91.3898 267.14 88.0598 267.26 85.6798 267.26H85.5698V264.26H85.6898C88.0798 264.26 91.4498 264.26 93.8098 264.32H93.8698V264.38L93.8098 267.18L93.7998 267.14ZM93.7998 267.14L93.7398 264.34L93.7998 264.4L89.7398 264.45H85.6798L85.8098 264.32V267.12L85.6998 267.01C88.0298 267.01 91.4498 267.08 93.8198 267.12L93.7998 267.14Z" fill="#407BFF"/>
<path d="M310.59 315.39C308.19 315.39 304.85 315.5 302.48 315.5H302.36V312.5H302.49C304.88 312.5 308.24 312.5 310.6 312.56H310.67V312.62L310.6 315.43L310.59 315.39ZM310.59 315.39L310.53 312.58L310.59 312.65C309.24 312.65 307.89 312.65 306.53 312.65H302.53L302.65 312.52V315.33L302.54 315.21C304.87 315.21 308.28 315.29 310.65 315.33L310.59 315.39Z" fill="#407BFF"/>
<path d="M310.59 200.361C308.19 200.361 304.85 200.481 302.48 200.471H302.36V197.471H302.49C304.88 197.471 308.24 197.471 310.6 197.531H310.67V197.591L310.6 200.391L310.59 200.361ZM310.59 200.361L310.53 197.561L310.59 197.621H306.53H302.53L302.65 197.501V200.301L302.54 200.191C304.87 200.191 308.28 200.261 310.65 200.301L310.59 200.361Z" fill="#407BFF"/>
<path d="M315.12 201.09H307V203.89H315.12V201.09Z" fill="#407BFF"/>
<path d="M134 232.521H125.88V235.321H134V232.521Z" fill="#407BFF"/>
</g>
<path d="M34.5698 376.631C172.57 376.021 327.41 376.021 465.43 376.631C327.43 377.251 172.59 377.251 34.5698 376.631Z" fill="#263238"/>
<path d="M34.5698 459.43C172.57 458.82 327.41 458.81 465.43 459.43C327.43 460.05 172.59 460.04 34.5698 459.43Z" fill="#263238"/>
<path d="M458.63 369.131H41.3599V376.401H458.63V369.131Z" fill="#C7C7C7"/>
<path d="M70.6198 369.131C71.273 371.51 71.273 374.022 70.6198 376.401C70.2683 375.224 70.0996 373.999 70.1198 372.771C70.1039 371.539 70.2724 370.312 70.6198 369.131Z" fill="#263238"/>
<path d="M103.23 369.131C103.577 370.312 103.746 371.539 103.73 372.771C103.75 373.999 103.581 375.224 103.23 376.401C102.576 374.022 102.576 371.51 103.23 369.131Z" fill="#263238"/>
<path d="M135.85 369.131C136.503 371.51 136.503 374.022 135.85 376.401C135.498 375.224 135.33 373.999 135.35 372.771C135.334 371.539 135.502 370.312 135.85 369.131Z" fill="#263238"/>
<path d="M168.46 369.131C168.807 370.312 168.976 371.539 168.96 372.771C168.98 373.999 168.811 375.224 168.46 376.401C167.806 374.022 167.806 371.51 168.46 369.131Z" fill="#263238"/>
<path d="M201.08 369.131C201.733 371.51 201.733 374.022 201.08 376.401C200.728 375.224 200.56 373.999 200.58 372.771C200.564 371.539 200.732 370.312 201.08 369.131Z" fill="#263238"/>
<path d="M233.69 369.131C234.037 370.312 234.206 371.539 234.19 372.771C234.21 373.999 234.041 375.224 233.69 376.401C233.036 374.022 233.036 371.51 233.69 369.131Z" fill="#263238"/>
<path d="M266.31 369.131C266.963 371.51 266.963 374.022 266.31 376.401C265.958 375.224 265.79 373.999 265.81 372.771C265.794 371.539 265.962 370.312 266.31 369.131Z" fill="#263238"/>
<path d="M298.92 369.131C299.267 370.312 299.436 371.539 299.42 372.771C299.44 373.999 299.271 375.224 298.92 376.401C298.266 374.022 298.266 371.51 298.92 369.131Z" fill="#263238"/>
<path d="M331.54 369.131C332.193 371.51 332.193 374.022 331.54 376.401C331.188 375.224 331.02 373.999 331.04 372.771C331.024 371.539 331.192 370.312 331.54 369.131Z" fill="#263238"/>
<path d="M364.15 369.131C364.497 370.312 364.666 371.539 364.65 372.771C364.67 373.999 364.501 375.224 364.15 376.401C363.496 374.022 363.496 371.51 364.15 369.131Z" fill="#263238"/>
<path d="M396.77 369.131C397.423 371.51 397.423 374.022 396.77 376.401C396.418 375.224 396.25 373.999 396.27 372.771C396.254 371.539 396.422 370.312 396.77 369.131Z" fill="#263238"/>
<path d="M429.38 369.131C429.727 370.312 429.895 371.539 429.88 372.771C429.9 373.999 429.731 375.224 429.38 376.401C428.726 374.022 428.726 371.51 429.38 369.131Z" fill="#263238"/>
<path d="M220.13 376.631H279.87L392.74 459.431H107.33L220.13 376.631Z" fill="#EBEBEB"/>
<path d="M88.4198 369.131C88.4198 369.131 87.5798 365.211 85.8998 364.601C84.2198 363.991 83.1898 365.761 83.1898 365.761C83.1898 365.761 82.7998 362.001 80.4098 360.881C78.0198 359.761 76.2398 362.061 76.2398 362.061C76.2398 362.061 74.4098 357.301 71.1398 357.301C67.8698 357.301 66.2298 364.301 66.2298 364.301C66.2298 364.301 64.2998 362.231 62.3198 363.401C60.3398 364.571 60.3198 369.171 60.3198 369.171L88.4198 369.131Z" fill="#37474F"/>
<path d="M367.26 369.131C367.26 369.131 366.42 365.211 364.74 364.601C363.06 363.991 362.04 365.761 362.04 365.761C362.04 365.761 361.64 362.001 359.26 360.881C356.88 359.761 355.09 362.061 355.09 362.061C355.09 362.061 353.26 357.301 349.99 357.301C346.72 357.301 345.07 364.301 345.07 364.301C345.07 364.301 343.15 362.231 341.17 363.401C339.19 364.571 339.17 369.171 339.17 369.171L367.26 369.131Z" fill="#455A64"/>
<path d="M162.7 369.132H133.15C133.15 369.132 134.15 364.972 136.08 364.672C136.67 364.619 137.262 364.749 137.776 365.042C138.291 365.335 138.704 365.778 138.96 366.312C138.96 366.312 138.87 360.502 142.53 359.512C146.19 358.522 149.25 363.652 149.25 363.652C149.25 363.652 151.55 360.732 154.67 360.912C157.79 361.092 158.6 365.912 158.6 365.912C158.6 365.912 161.44 364.262 162.7 369.132Z" fill="#37474F"/>
<path d="M62.1599 369.131H46.6099C46.6099 369.131 46.6099 366.821 48.1699 366.201C48.5856 366.022 49.0483 365.983 49.4883 366.089C49.9283 366.196 50.3219 366.442 50.6099 366.791C50.6099 366.791 51.2299 362.531 54.0799 362.531C56.9299 362.531 58.2999 366.201 58.2999 366.201C58.5416 365.851 58.8807 365.579 59.2752 365.419C59.6697 365.259 60.1024 365.218 60.5199 365.301C62.0999 365.511 62.1599 369.131 62.1599 369.131Z" fill="#455A64"/>
<path d="M174.9 369.131H159.35C159.35 369.131 159.35 366.821 160.91 366.201C161.326 366.022 161.789 365.983 162.229 366.089C162.669 366.196 163.062 366.442 163.35 366.791C163.35 366.791 163.98 362.531 166.83 362.531C169.68 362.531 171 366.201 171 366.201C171.242 365.851 171.581 365.579 171.975 365.419C172.37 365.259 172.803 365.218 173.22 365.301C174.84 365.511 174.9 369.131 174.9 369.131Z" fill="#455A64"/>
<path d="M430.7 369.131H415.15C415.15 369.131 415.15 366.821 416.71 366.201C417.126 366.022 417.588 365.983 418.028 366.089C418.468 366.196 418.862 366.442 419.15 366.791C419.15 366.791 419.77 362.531 422.62 362.531C425.47 362.531 426.84 366.201 426.84 366.201C427.081 365.85 427.42 365.577 427.814 365.417C428.209 365.257 428.642 365.217 429.06 365.301C430.64 365.511 430.7 369.131 430.7 369.131Z" fill="#455A64"/>
<path d="M453.39 369.131H427.75C427.75 369.131 427.81 365.321 430.33 364.301C431.015 364.013 431.775 363.955 432.496 364.135C433.218 364.315 433.861 364.724 434.33 365.301C434.33 365.301 435.33 358.301 440.06 358.301C444.79 358.301 447 364.301 447 364.301C447.398 363.723 447.957 363.273 448.607 363.009C449.258 362.744 449.971 362.675 450.66 362.811C453.29 363.151 453.39 369.131 453.39 369.131Z" fill="#37474F"/>
</svg>
