<svg xmlns="http://www.w3.org/2000/svg" width="25" height="30" viewBox="0 0 25 30" fill="none">
  <path d="M18.4051 0.547119H0.64209V29.4101H24.2971V6.20012L18.4051 0.547119Z" fill="white"/>
  <path d="M4.7771 9.26294H20.0671M4.7771 12.9199H20.0671M4.7771 16.5749H20.0671M4.7771 20.2329H20.0671M4.7771 23.8899H11.3151" stroke="#B0BEC5" stroke-width="0.966" stroke-miterlimit="10" stroke-linecap="round"/>
  <path d="M23.805 4.898L19.64 0.72C19.1498 0.257251 18.5011 -0.000366608 17.827 3.9158e-07H0.702C0.515899 0.000264928 0.337496 0.0743103 0.205903 0.205904C0.0743098 0.337497 0.000264536 0.5159 0 0.702V29.297C0 29.685 0.315 30 0.702 30H24.185C24.3713 29.9997 24.5498 29.9256 24.6814 29.7937C24.8131 29.6619 24.887 29.4833 24.887 29.297V6.82C24.884 6.093 24.334 5.398 23.805 4.898ZM23.885 29H0.999V1H17.164C17.694 1 18.126 1.43 18.126 1.962V6.432H22.461C23.246 6.432 23.883 6.865 23.883 7.855L23.885 29Z" fill="#6FBFF0"/>
</svg>